<svg id="Out_line" height="512" viewBox="0 0 512 512" width="512" xmlns="http://www.w3.org/2000/svg" data-name="Out line"><path d="m392 136a24.02718 24.02718 0 0 1 -24 24 48.054 48.054 0 0 0 -48 48v8a24.02718 24.02718 0 0 1 -24 24 40.04552 40.04552 0 0 0 -40 40v8h-8a8.00008 8.00008 0 0 0 -8 8v96a71.8849 71.8849 0 0 0 26.81494 56h-58.81494a8.00008 8.00008 0 0 0 -8 8 40.04552 40.04552 0 0 0 40 40h192a40.04552 40.04552 0 0 0 40-40 8.00008 8.00008 0 0 0 -8-8h-58.81494a72.27433 72.27433 0 0 0 22.68652-32h4.12842a64 64 0 0 0 0-128h-16v-8a48.05468 48.05468 0 0 1 48-48h32v-16h-32a64.07239 64.07239 0 0 0 -64 64v8h-128v-8a24.02718 24.02718 0 0 1 24-24 40.04552 40.04552 0 0 0 40-40v-8a32.03635 32.03635 0 0 1 32-32 40.04552 40.04552 0 0 0 40-40 40.04552 40.04552 0 0 1 40-40h48v-16h-48a56.06322 56.06322 0 0 0 -56 56zm62.62891 328a24.04166 24.04166 0 0 1 -22.62891 16h-192a24.04166 24.04166 0 0 1 -22.62891-16zm-22.62891-128a16 16 0 0 1 0 32zm48 16a48.054 48.054 0 0 1 -48 48v-16a32 32 0 0 0 0-64v-16a48.054 48.054 0 0 1 48 48zm-64-48v88a56.06322 56.06322 0 0 1 -56 56h-48a56.06322 56.06322 0 0 1 -56-56v-88z"/><path d="m396 208a44.04978 44.04978 0 0 0 -44 44v20h16v-20a28.03146 28.03146 0 0 1 28-28 44.04978 44.04978 0 0 0 44-44v-32h-16v32a28.03146 28.03146 0 0 1 -28 28z"/><path d="m380.94727 124.51709a192.01258 192.01258 0 0 0 -172.94727-108.51709c-105.86914 0-192 86.13086-192 192s86.13086 192 192 192c5.55957 0 11.17383-.24072 16.68652-.71533l-1.373-15.94141c-5.05762.436-10.21.65674-15.31348.65674-97.04688 0-176-78.95312-176-176s78.95308-176 175.99996-176c67.08789 0 129.32031 39.04932 158.543 99.48291z"/><path d="m200 208v104h16v-100.68652l45.65723-45.65674-11.31446-11.31348-48 48a8.00035 8.00035 0 0 0 -2.34277 5.65674z"/><path d="m322.82031 150.86523 20.78907-12.01806a7.99933 7.99933 0 0 0 2.918-10.936 159.92532 159.92532 0 0 0 -138.52738-79.91117c-88.22461 0-160 71.77588-160 160s71.77539 160 160 160a8.00008 8.00008 0 0 0 8-8v-24h-16v15.78027c-73.0354-4.01928-131.73608-62.719-135.77075-135.75073l15.7727-.00317-.0039-16-15.77393.00317a142.95488 142.95488 0 0 1 15.26172-56.94433l13.647 7.87426 7.9961-13.8584-13.62085-7.85913a145.15419 145.15419 0 0 1 41.65966-41.68506l7.86744 13.61646 13.85351-8.00488-7.88281-13.64307a142.95577 142.95577 0 0 1 56.93506-15.29565l.00635 15.77368 16-.00684-.00635-15.762a143.91757 143.91757 0 0 1 56.918 15.28857l-7.84235 13.59843 13.85938 7.99317 7.83642-13.58838a144.27289 144.27289 0 0 1 41.76319 41.58886l-13.66309 7.898z"/><path d="m104 200h80v16h-80z"/></svg>