<svg id="Capa_1" enable-background="new 0 0 524.235 524.235" height="512" viewBox="0 0 524.235 524.235" width="512" xmlns="http://www.w3.org/2000/svg"><path d="m406.263 9.583c-46.296-6.351-95.216-9.583-144.136-9.583-48.926 0-97.852 3.231-144.155 9.583-48.571 6.671-85.208 48.571-85.208 97.446v351.677c0 18.094 14.671 32.765 32.765 32.765h32.765c0 18.094 14.671 32.765 32.765 32.765h32.765c18.094 0 32.765-14.671 32.765-32.765h131.059c0 18.094 14.671 32.765 32.765 32.765h32.765c18.094 0 32.765-14.671 32.765-32.765h32.765c18.094 0 32.765-14.671 32.765-32.765v-351.677c-.002-48.875-36.639-90.775-85.21-97.446zm-279.364 64.922c29.789-4.096 77.448-8.975 135.218-8.975s105.429 4.88 135.218 8.975c16.574 2.272 28.605 15.95 28.605 32.525v142.856c-37.352 4.736-105.679 12.233-163.824 12.233s-126.471-7.497-163.824-12.233v-142.857c.002-16.574 12.033-30.253 28.607-32.524zm36.925 318.671c-18.096 0-32.765-14.671-32.765-32.765 0-18.096 14.669-32.765 32.765-32.765s32.765 14.669 32.765 32.765c-.001 18.095-14.669 32.765-32.765 32.765zm196.588 0c-18.096 0-32.765-14.671-32.765-32.765 0-18.096 14.669-32.765 32.765-32.765s32.765 14.669 32.765 32.765c-.001 18.095-14.669 32.765-32.765 32.765z"/></svg>