<svg height="512" viewBox="0 0 16 16" width="512" xmlns="http://www.w3.org/2000/svg"><path d="m9.125 6.75879c1.19141-1.02686 1.875-2.50098 1.875-4.04346v-.715332h1v-2h-12v2h1v.715332c0 1.54248.683594 3.0166 1.87451 4.04346l.561523.483887c.223633.192871.347168.461914.347168.757324s-.123535.564453-.347656.757324l-.560547.483887c-1.19141 1.02686-1.875 2.50098-1.875 4.04346v.715332h-1v2h12v-2h-1v-.715332c0-1.54248-.683594-3.0166-1.87451-4.04346l-.561523-.483887c-.223633-.192871-.347168-.461914-.347168-.757324s.123535-.564453.347656-.757324zm-.875 7.24121h-4.5l2.25-3z" transform="translate(2)"/></svg>