<?xml version="1.0" encoding="iso-8859-1"?>
<!-- Generator: Adobe Illustrator 19.0.0, SVG Export Plug-In . SVG Version: 6.00 Build 0)  -->
<svg version="1.1" id="Layer_1" xmlns="http://www.w3.org/2000/svg" xmlns:xlink="http://www.w3.org/1999/xlink" x="0px" y="0px"
	 viewBox="0 0 512.001 512.001" style="enable-background:new 0 0 512.001 512.001;" xml:space="preserve">
<g>
	<g>
		<g>
			<path d="M10.668,224v192c0,5.891,4.774,10.667,10.667,10.667h127.999h213.333h127.999c5.891,0,10.667-4.775,10.667-10.667V224
				c4.529,0,8.564-2.862,10.065-7.136c1.5-4.274,0.135-9.03-3.402-11.86l-80-64.002c-1.891-1.514-4.241-2.337-6.662-2.337h-47.999
				V96.002c0-3.241-1.473-6.305-4.003-8.33L262.665,2.338c-3.895-3.117-9.431-3.117-13.327,0L142.671,87.673
				c-2.53,2.023-4.003,5.089-4.003,8.33v42.662H90.67c-2.42,0-4.771,0.825-6.662,2.337L4.005,205.005
				c-3.536,2.83-4.901,7.585-3.402,11.86C2.102,221.139,6.138,224,10.668,224z M479.999,330.67h-31.242l31.242-31.242V330.67z
				 M373.333,159.999h44.257l53.333,42.669h-97.59V159.999z M373.333,224h106.665v45.257l-61.412,61.412h-30.168l23.156-23.158
				c4.166-4.165,4.165-10.919,0-15.085c-4.165-4.165-10.918-4.165-15.086,0l-23.155,23.157V224z M373.333,352.003h106.665v53.33
				H373.333V352.003z M160,213.333V101.13l96-76.802l96,76.802v112.203v149.335h-21.332V213.333c0-5.891-4.775-10.667-10.667-10.667
				h-128c-5.892,0-10.667,4.775-10.667,10.667v149.335H160V213.333z M260.418,224h30.173l-23.157,23.157
				c-4.166,4.166-4.166,10.919-0.001,15.086c2.083,2.083,4.813,3.124,7.543,3.124c2.73,0,5.459-1.042,7.541-3.124l26.817-26.817
				v127.24H202.668v-80.915L260.418,224z M202.668,251.581V224h27.58L202.668,251.581z M160,384.002h32.001
				c0.017,0,0.033-0.002,0.051-0.002H319.95c0.018,0,0.034,0.002,0.051,0.002H352v21.331H160V384.002z M138.667,330.67h-31.242
				l31.242-31.242V330.67z M94.412,159.999h44.255v42.668h-97.59L94.412,159.999z M32.002,224h106.665v45.257L77.255,330.67h-30.17
				l23.155-23.158c4.165-4.166,4.165-10.919-0.001-15.085c-4.164-4.165-10.919-4.165-15.085,0l-23.153,23.155V224z M32.002,352.003
				h106.665v53.33H32.002V352.003z"/>
			<path d="M256.002,169.865c23.526,0,42.666-19.14,42.666-42.668c0-23.526-19.139-42.666-42.666-42.666
				c-23.527,0-42.668,19.139-42.668,42.666S232.475,169.865,256.002,169.865z M256.002,105.865c11.762,0,21.332,9.57,21.332,21.332
				c0,11.764-9.57,21.334-21.332,21.334c-11.763,0-21.334-9.57-21.334-21.334C234.668,115.434,244.239,105.865,256.002,105.865z"/>
			<path d="M252.582,287.761c2.727,0,5.456-1.04,7.538-3.121l0.553-0.554c4.167-4.163,4.171-10.917,0.007-15.085
				c-4.162-4.167-10.916-4.17-15.083-0.006l-0.555,0.554c-4.166,4.163-4.171,10.917-0.006,15.085
				C247.119,286.719,249.85,287.761,252.582,287.761z"/>
			<path d="M84.54,288.799c2.738,0,5.476-1.047,7.56-3.142l0.551-0.554c4.156-4.175,4.14-10.929-0.035-15.085
				c-4.175-4.155-10.929-4.14-15.086,0.036l-0.551,0.554c-4.156,4.175-4.14,10.929,0.036,15.085
				C79.097,287.763,81.818,288.799,84.54,288.799z"/>
			<path d="M425.872,288.799c2.732,0,5.462-1.043,7.546-3.128l0.553-0.554c4.163-4.167,4.16-10.922-0.007-15.085
				c-4.167-4.164-10.921-4.161-15.085,0.006l-0.554,0.554c-4.164,4.167-4.16,10.922,0.006,15.085
				C420.416,287.758,423.143,288.799,425.872,288.799z"/>
			<path d="M501.332,490.667H480v-21.334h21.332c5.89,0,10.667-4.775,10.667-10.667c0-5.891-4.777-10.667-10.667-10.667H10.668
				c-5.892,0-10.667,4.775-10.667,10.667c0,5.891,4.774,10.667,10.667,10.667h21.334v21.334H10.668
				c-5.892,0-10.667,4.775-10.667,10.667s4.774,10.667,10.667,10.667h490.664c5.89,0,10.667-4.775,10.667-10.667
				C511.999,495.444,507.222,490.667,501.332,490.667z M85.336,490.668h-32v-21.334h32V490.668z M138.669,490.667h-32v-21.334h32
				V490.667z M192,490.668h-31.998v-21.334H192V490.668z M245.334,490.668h-32v-21.334h32V490.668z M298.667,490.668h-32v-21.334h32
				V490.668z M352,490.668h-32v-21.334h32V490.668z M405.333,490.668h-32v-21.334h32V490.668z M458.666,490.667h-32v-21.334h32
				V490.667z"/>
		</g>
	</g>
</g>
<g>
</g>
<g>
</g>
<g>
</g>
<g>
</g>
<g>
</g>
<g>
</g>
<g>
</g>
<g>
</g>
<g>
</g>
<g>
</g>
<g>
</g>
<g>
</g>
<g>
</g>
<g>
</g>
<g>
</g>
</svg>
