<svg id="Capa_1" enable-background="new 0 0 450.823 450.823" height="512" viewBox="0 0 450.823 450.823" width="512" xmlns="http://www.w3.org/2000/svg"><path id="path-1_51_" d="m188.982 233.664c11.004 11.004 11.004 28.844 0 39.847-11.004 11.004-28.844 11.004-39.847 0-11.004-11.004-11.004-28.844 0-39.847s28.844-11.003 39.847 0" transform="translate(4.902 7.902)"/><path id="path-1_50_" d="m301.688 233.664c11.004 11.004 11.004 28.844 0 39.847-11.004 11.004-28.844 11.004-39.847 0-11.004-11.004-11.004-28.844 0-39.847 11.003-11.003 28.844-11.003 39.847 0" transform="translate(8.902 7.902)"/><path d="m352.206 28.176h-42.265v-14.088c0-7.787-6.301-14.088-14.088-14.088h-140.883c-7.787 0-14.088 6.301-14.088 14.088v14.088h-42.265c-7.787 0-14.088 6.301-14.088 14.088v281.765c0 6.604 4.581 12.327 11.034 13.758l42.191 9.376-27.222 95.845 27.076 7.815 8.002-28.176h159.604l8.002 28.176 27.076-7.815-27.222-95.845 42.191-9.376c6.453-1.431 11.034-7.154 11.034-13.758v-281.764c-.001-7.787-6.302-14.089-14.089-14.089zm-197.236 28.177c7.787 0 14.088-6.301 14.088-14.088v-14.089h112.706v14.088c0 7.787 6.301 14.088 14.088 14.088h42.265v112.706h-225.411v-112.705zm142.24 338.117h-143.596l11.696-41.185 57.048 12.678c1.004.22 2.036.33 3.054.33s2.05-.11 3.054-.33l57.048-12.678c0 .001 11.696 41.185 11.696 41.185zm-71.799-56.697-112.706-25.04v-115.498h225.412v115.499z"/></svg>