<?xml version="1.0" ?><!DOCTYPE svg  PUBLIC '-//W3C//DTD SVG 1.1//EN'  'http://www.w3.org/Graphics/SVG/1.1/DTD/svg11.dtd'><svg enable-background="new 0 0 141.732 141.732" height="141.732px" id="Livello_1" version="1.1" viewBox="0 0 141.732 141.732" width="141.732px" xml:space="preserve" xmlns="http://www.w3.org/2000/svg" xmlns:xlink="http://www.w3.org/1999/xlink"><g id="Livello_22"><path d="M101.734,59.837c0,3.005-2.433,5.439-5.439,5.439c-3.005,0-5.439-2.434-5.439-5.439c0-3.007,2.435-5.44,5.439-5.44   S101.734,56.831,101.734,59.837 M101.734,43.517h-27.2V16.319h27.2V43.517z M85.415,8.158c0,1.545-1.218,2.794-2.718,2.794h-21.76   h-0.038c-1.523,0-2.758-1.233-2.758-2.758c0-1.521,1.235-2.761,2.758-2.761c0.015,0,0.024,0.004,0.038,0.004V5.363h21.759h0.002   C84.197,5.363,85.415,6.613,85.415,8.158 M69.096,43.517h-27.2V16.319h27.202L69.096,43.517L69.096,43.517z M41.094,59.837   c0-3.007,2.436-5.44,5.439-5.44c3.007,0,5.443,2.433,5.443,5.44c0,3.005-2.436,5.439-5.443,5.439   C43.529,65.276,41.094,62.843,41.094,59.837 M53.287,87.035H90.03l6.455,11.177H46.834L53.287,87.035z M40.553,109.091h62.212   l6.28,10.881H34.27L40.553,109.091z M107.177,78.876V8.158c0-4.508-3.655-8.158-8.162-8.158h-0.002H44.618h-0.001   c-4.507,0-8.16,3.649-8.16,8.157v70.718c0,4.508,3.653,8.158,8.16,8.158h2.471L15.51,141.732h6.199l6.281-10.883h87.337   l6.281,10.883h6.199L96.228,87.035h2.789C103.521,87.035,107.177,83.384,107.177,78.876 M108.365,98.211l0.257,0.443v-0.443   H108.365z"/></g><g id="Livello_1_1_"/></svg>