<svg height="512" viewBox="0 0 64 64" width="512" 
    xmlns="http://www.w3.org/2000/svg">
    <g id="Waiting_room-2" data-name="Waiting room">
        <path d="m58 56h-5v-5h7a1 1 0 0 0 1-1v-4a1 1 0 0 0 -1-1h-1v-7a5.006 5.006 0 0 0 -5-5h-4a5.006 5.006 0 0 0 -5 5v7h-1a1 1 0 0 0 -1 1v1h-2v-1a1 1 0 0 0 -1-1h-1v-7a5.006 5.006 0 0 0 -5-5h-4a5.006 5.006 0 0 0 -5 5v7h-1a1 1 0 0 0 -1 1v1h-2v-1a1 1 0 0 0 -1-1h-1v-7a5.006 5.006 0 0 0 -5-5h-4a5.006 5.006 0 0 0 -5 5v7h-1a1 1 0 0 0 -1 1v4a1 1 0 0 0 1 1h7v5h-9a1 1 0 0 0 0 2h56a1 1 0 0 0 0-2zm-11-18a3 3 0 0 1 3-3h4a3 3 0 0 1 3 3v7h-10zm-2 9h14v2h-14zm-18-9a3 3 0 0 1 3-3h4a3 3 0 0 1 3 3v7h-10zm-2 9h14v2h-14zm-18-9a3 3 0 0 1 3-3h4a3 3 0 0 1 3 3v7h-10zm-2 11v-2h14v2zm8 7v-5h7a1 1 0 0 0 1-1v-1h2v1a1 1 0 0 0 1 1h7v5zm20 0v-5h7a1 1 0 0 0 1-1v-1h2v1a1 1 0 0 0 1 1h7v5z"/>
        <path d="m62 56h-1a1 1 0 0 0 0 2h1a1 1 0 0 0 0-2z"/>
        <path d="m43 28a10 10 0 1 0 -10-10 10.011 10.011 0 0 0 10 10zm0-18a8 8 0 1 1 -8 8 8.009 8.009 0 0 1 8-8z"/>
        <path d="m42.684 18.948 3 1a1 1 0 1 0 .632-1.9l-2.316-.769v-4.279a1 1 0 0 0 -2 0v5a1 1 0 0 0 .684.948z"/>
    </g>
</svg>