<?xml version="1.0" encoding="iso-8859-1"?>
<!-- Generator: Adobe Illustrator 17.1.0, SVG Export Plug-In . SVG Version: 6.00 Build 0)  -->
<!DOCTYPE svg PUBLIC "-//W3C//DTD SVG 1.1//EN" "http://www.w3.org/Graphics/SVG/1.1/DTD/svg11.dtd">
<svg version="1.1" id="Capa_1" xmlns="http://www.w3.org/2000/svg" xmlns:xlink="http://www.w3.org/1999/xlink" x="0px" y="0px"
	 viewBox="0 0 93.646 93.646" style="enable-background:new 0 0 93.646 93.646;" xml:space="preserve">
<g>
	<path d="M55.539,20.005c5.515,0,10.002-4.487,10.002-10.003C65.542,4.487,61.054,0,55.539,0S45.537,4.487,45.537,10.002
		C45.537,15.518,50.024,20.005,55.539,20.005z"/>
	<path d="M79.422,50.959L66.956,24.919c-0.637-1.33-2.291-2.372-3.766-2.372h-0.07h-2.735H50.292c-0.838,0-1.595,0.347-2.139,0.903
		c-0.027,0.021-0.059,0.036-0.085,0.059l-9.09,7.766c-1.004,0.858-1.977,2.548-2.213,3.848l-3.159,17.384
		c-0.145,0.794,0.035,1.588,0.504,2.234c0.47,0.647,1.169,1.063,1.97,1.171l1.096,0.148l-3.376,11.552
		c-0.274-0.198-0.575-0.359-0.909-0.456l-9.961-2.911c-0.273-0.08-0.555-0.12-0.838-0.12c-1.326,0-2.512,0.887-2.883,2.158
		L14.034,83.99c-0.464,1.587,0.451,3.257,2.038,3.721l7.663,2.24c0.315,1.38,1.33,2.559,2.783,2.984
		c0.369,0.107,0.749,0.162,1.13,0.162c1.778,0,3.367-1.193,3.865-2.9c0.303-1.033,0.185-2.122-0.332-3.066
		c-0.194-0.354-0.449-0.658-0.729-0.933l4.478-15.32c0-0.001,0-0.003,0.001-0.004l4.399-15.054c0.869-0.42,1.547-1.215,1.748-2.18
		l2.991-14.38c0.177-0.849,0.936-2.056,1.625-2.582l1.599-1.223v19.102c-0.024,0.067-0.059,0.128-0.081,0.196l-9.783,30.638
		c-0.407,1.276-0.283,2.619,0.35,3.781s1.694,1.994,2.987,2.343l0.654,0.177c0.428,0.116,0.872,0.175,1.318,0.175
		c2.251,0,4.296-1.481,4.974-3.603l9.141-28.628l3.242,7.941c0.791,1.938,1.645,5.331,1.865,7.409l1.551,14.621
		c0.249,2.341,2.1,4.04,4.402,4.04c0.377,0,0.76-0.046,1.137-0.137l0.659-0.16c2.624-0.635,4.478-3.331,4.133-6.008l-2.297-17.828
		c-0.291-2.265-1.269-5.812-2.178-7.908l-3.102-7.145c-0.04-0.093-0.097-0.177-0.143-0.268v-12.74l6.675,13.504
		c0.478,0.965,1.423,1.564,2.468,1.564c0.538,0,1.07-0.16,1.537-0.462l1.448-0.937C79.603,54.244,80.119,52.416,79.422,50.959z
		 M29.92,89.731c-0.292,1.001-1.227,1.703-2.271,1.703c-0.225,0-0.449-0.032-0.666-0.095c-1.253-0.366-1.976-1.684-1.61-2.937
		c0.356-1.219,1.712-1.969,2.938-1.609c0.608,0.177,1.11,0.581,1.415,1.136C30.029,88.484,30.098,89.125,29.92,89.731z"/>
</g>
<g>
</g>
<g>
</g>
<g>
</g>
<g>
</g>
<g>
</g>
<g>
</g>
<g>
</g>
<g>
</g>
<g>
</g>
<g>
</g>
<g>
</g>
<g>
</g>
<g>
</g>
<g>
</g>
<g>
</g>
</svg>
