<?xml version="1.0" encoding="iso-8859-1"?>
<!-- Generator: Adobe Illustrator 19.0.0, SVG Export Plug-In . SVG Version: 6.00 Build 0)  -->
<svg version="1.1" id="Capa_1" 
	xmlns="http://www.w3.org/2000/svg" 
	xmlns:xlink="http://www.w3.org/1999/xlink" x="0px" y="0px" viewBox="0 0 469.333 469.333" style="enable-background:new 0 0 469.333 469.333;" xml:space="preserve">
	<g>
		<g>
			<g>
				<path d="M426.667,0h-384C19.146,0,0,19.135,0,42.667v384c0,23.531,19.146,42.667,42.667,42.667h384
				c23.521,0,42.667-19.135,42.667-42.667v-384C469.333,19.135,450.188,0,426.667,0z M448,426.667
				c0,11.76-9.563,21.333-21.333,21.333h-384c-11.771,0-21.333-9.573-21.333-21.333v-384c0-11.76,9.563-21.333,21.333-21.333h384
				c11.771,0,21.333,9.573,21.333,21.333V426.667z"/>
				<path d="M288,128c23.521,0,42.667-19.135,42.667-42.667S311.521,42.667,288,42.667c-23.521,0-42.667,19.135-42.667,42.667
				S264.479,128,288,128z M288,64c11.771,0,21.333,9.573,21.333,21.333c0,11.76-9.563,21.333-21.333,21.333
				c-11.771,0-21.333-9.573-21.333-21.333C266.667,73.573,276.229,64,288,64z"/>
				<path d="M357.917,236.458l-29.646-19.76l-25.479-51.01c-4.542-9.01-12.125-16.146-21.354-20.104l-50.25-21.542
				c-11.583-4.979-24.688-4.573-35.896,1.052l-50.729,25.365c-2.521,1.271-4.458,3.49-5.354,6.167l-32,96
				c-1.083,3.25-0.542,6.833,1.479,9.615c2,2.781,5.208,4.427,8.646,4.427h28.229L86.125,411.958
				c-1.333,3.292-0.958,7.031,1.021,9.99c1.979,2.948,5.292,4.719,8.854,4.719h42.667c4.042,0,7.729-2.281,9.542-5.896
				l55.083-110.177l31.375,54.906V416c0,5.896,4.771,10.667,10.667,10.667H288c5.896,0,10.667-4.771,10.667-10.667v-74.667
				c0-1.854-0.479-3.677-1.396-5.292l-40.125-70.198l10.604-26.5l10.708,21.427c1.042,2.063,2.708,3.74,4.771,4.771l42.667,21.333
				c4.75,2.365,10.646,0.854,13.646-3.625l21.333-32C364.146,246.344,362.813,239.729,357.917,236.458z M327.021,263.583
				l-31.063-15.531l-19.75-39.49c-1.875-3.75-5.667-6.01-9.979-5.885c-4.208,0.177-7.896,2.792-9.458,6.698l-21.333,53.333
				c-1.208,3.021-0.979,6.427,0.625,9.25l41.271,72.208v61.167H256v-42.667c0-1.854-0.479-3.677-1.396-5.292l-42.667-74.667
				c-1.958-3.417-5.583-5.115-9.563-5.375c-3.938,0.115-7.5,2.375-9.25,5.896l-61.042,122.104h-20.188l89.979-219.958
				c2.229-5.458-0.375-11.688-5.833-13.917c-5.479-2.219-11.688,0.385-13.917,5.833l-27.833,68.042h-22.167l25.938-77.771
				l46.771-23.385c5.625-2.792,12.167-3.01,17.938-0.531l50.25,21.542c4.625,1.979,8.438,5.563,10.688,10.063l26.75,53.521
				c0.833,1.656,2.083,3.073,3.625,4.104l23.125,15.417L327.021,263.583z"/>
			</g>
		</g>
	</g>
</svg>
