<?xml version="1.0" encoding="iso-8859-1"?>
<!-- Generator: Adobe Illustrator 18.1.1, SVG Export Plug-In . SVG Version: 6.00 Build 0)  -->
<svg version="1.1" id="Capa_1" 
	xmlns="http://www.w3.org/2000/svg" 
	xmlns:xlink="http://www.w3.org/1999/xlink" x="0px" y="0px" viewBox="0 0 332.467 332.467" style="enable-background:new 0 0 332.467 332.467;" xml:space="preserve">
	<g>
		<g>
			<path d="M272.759,74.58c-15.914-9.338-36.559,11.218-50.348,26.851
			c-8.527-8.825-17.495-17.268-26.427-25.64c-11.719-18.259-40.891-19.685-55.009-4.117c-0.173,0.149-0.358,0.251-0.531,0.412
			c-10.221,9.595-20.604,19.219-30.383,29.345C96.265,85.798,75.626,65.236,59.718,74.58c-13.98,8.216-6.969,27.018,5.328,29.584
			c0.513,0.442,1.289,1.074,2.452,2.011c11.248,9.058,21.129,19.971,30.962,30.503c5.621,6.021,17.059,6.462,22.614,0
			c3.843-4.469,7.882-8.783,11.993-13.026c0,17.071,0,34.142,0,51.208c0,0.692,0.066,1.343,0.101,2.017
			c-0.018,0.31-0.089,0.585-0.089,0.901c0,46.422-0.09,92.85-2.005,139.249c-0.853,20.633,31.141,20.544,31.982,0
			c1.498-36.368,1.868-72.748,1.963-109.134c1.516,0.089,3.031,0.101,4.547,0.012c0.095,36.38,0.465,72.754,1.969,109.122
			c0.847,20.544,32.824,20.633,31.971,0c-1.915-46.404-1.993-92.827-1.993-139.249c0-1.438-0.185-2.757-0.477-3.992
			c0-16.158,0-32.323,0-48.481c3.55,3.711,7.023,7.488,10.358,11.367c5.537,6.462,16.988,6.021,22.608,0
			c9.887-10.585,19.87-21.159,30.968-30.503c1.086-0.913,1.832-1.539,2.339-1.987C279.681,101.705,286.763,82.82,272.759,74.58z
			 M74.009,103.06c0.621-0.274,1.229-0.489,1.856-0.859C75.244,102.565,74.623,102.827,74.009,103.06z M258.534,103.09
			c-0.638-0.239-1.289-0.507-1.933-0.889C257.251,102.582,257.89,102.809,258.534,103.09z"/>
			<circle cx="167.056" cy="27.985" r="27.985"/>
		</g>
	</g>
	<g>
	</g>
	<g>
	</g>
	<g>
	</g>
	<g>
	</g>
	<g>
	</g>
	<g>
	</g>
	<g>
	</g>
	<g>
	</g>
	<g>
	</g>
	<g>
	</g>
	<g>
	</g>
	<g>
	</g>
	<g>
	</g>
	<g>
	</g>
	<g>
	</g>
</svg>
