<?xml version="1.0" encoding="iso-8859-1"?>
<!-- Generator: Adobe Illustrator 18.1.1, SVG Export Plug-In . SVG Version: 6.00 Build 0)  -->
<svg version="1.1" id="Capa_1" 
	xmlns="http://www.w3.org/2000/svg" 
	xmlns:xlink="http://www.w3.org/1999/xlink" x="0px" y="0px" viewBox="0 0 55.038 55.038" style="enable-background:new 0 0 55.038 55.038;" xml:space="preserve">
	<g>
		<g>
			<circle cx="11.703" cy="5.119" r="5.119"/>
			<path d="M39.718,29.958c-0.471-0.189-1.146,0.39-1.55,1.303l-4.04,0.826l3.124-4.346l-9.747-2.709
			l-0.002,0.005c-0.034-0.015-0.064-0.031-0.098-0.045c-1.134-0.457-2.359-0.31-3.329,0.283c-0.172-0.259-0.392-0.501-0.671-0.716
			c-3.868-2.959-6.88-6.669-9.273-10.889c-0.083-0.147-0.175-0.276-0.271-0.396C12.073,10.012,6.416,9.451,5.526,14
			c-1.133,5.805-1.898,11.672-2.124,17.585c-0.041,1.072,0.231,1.947,0.7,2.631c-0.047,0.206-0.075,0.428-0.075,0.665
			c0,5.209,0,10.418,0,15.628c0,3.475,5.389,3.475,5.389,0c0-4.916,0-9.83,0-14.746c1.644-0.527,3.004-1.896,3.089-4.111
			c0.123-3.213,0.41-6.396,0.85-9.562c2.128,2.641,4.561,5.007,7.33,7.125c0.64,0.49,1.274,0.609,1.839,0.486
			c0.348,0.962,1.081,1.777,2.101,2.188c0.033,0.015,0.067,0.022,0.101,0.035l-0.149,0.371l7.288,2.938l1.167-1.623l4.784-0.978
			c-0.016,0.496,0.127,0.884,0.42,1.001c0.488,0.198,1.205-0.438,1.601-1.415l0.054-0.131
			C40.284,31.109,40.208,30.155,39.718,29.958z M25.202,30.739c-0.033-0.012-0.066-0.021-0.101-0.034
			c-0.746-0.302-1.256-0.935-1.443-1.659c0.607-0.625,0.961-1.585,0.862-2.523c0.665-0.517,1.573-0.685,2.408-0.349
			c0.033,0.014,0.064,0.03,0.097,0.045L25.202,30.739z"/>
			<path d="M43.27,34.06c-0.781-0.508-1.334-0.714-1.355-0.723l-0.129,0.35
			c0.006,0.002,0.54,0.202,1.281,0.687L43.27,34.06z"/>
			<path d="M47.977,43.844l0.373-0.012c-0.011-0.292-0.027-0.575-0.052-0.851l-0.372,0.029
			C47.95,43.282,47.967,43.56,47.977,43.844z"/>
			<path d="M45.544,36.06c-0.329-0.386-0.688-0.748-1.065-1.08l-0.246,0.279
			c0.365,0.321,0.711,0.671,1.028,1.043L45.544,36.06z"/>
			<path d="M48.093,41.485c-0.097-0.502-0.221-0.996-0.37-1.467l-0.354,0.11
			c0.145,0.459,0.265,0.938,0.357,1.424L48.093,41.485z"/>
			<path d="M47.177,38.607c-0.215-0.461-0.459-0.908-0.729-1.33l-0.312,0.201
			c0.262,0.406,0.497,0.84,0.704,1.286L47.177,38.607z"/>
			<path d="M42.609,35.021c-0.67-0.646-1.172-0.955-1.192-0.969l-0.194,0.319
			c0.006,0.003,0.491,0.302,1.129,0.917L42.609,35.021z"/>
			<path d="M45.549,43.233h0.188l0.188-0.037c0-0.5-0.027-0.996-0.083-1.475l-0.368,0.042
			C45.521,42.23,45.549,42.709,45.549,43.233z"/>
			<path d="M45.355,45.526l0.369,0.061c0.045-0.289,0.082-0.57,0.111-0.848L45.464,44.7
			C45.438,44.971,45.4,45.246,45.355,45.526z"/>
			<path d="M43.324,36.382c0.297,0.387,0.57,0.796,0.811,1.221l0.325-0.184
			c-0.25-0.439-0.532-0.866-0.84-1.266L43.324,36.382z"/>
			<path d="M45.572,40.233c-0.119-0.494-0.273-0.979-0.459-1.445l-0.346,0.138
			c0.178,0.45,0.325,0.92,0.442,1.396L45.572,40.233z"/>
			<path d="M40.363,34.639l-0.223,0.3c0.006,0.002,0.461,0.347,1.036,1.018l0.283-0.243
			C40.855,35.006,40.384,34.653,40.363,34.639z"/>
			<path d="M43.938,41.172c-0.076-0.5-0.187-0.999-0.326-1.479l-0.356,0.104
			c0.138,0.466,0.241,0.947,0.313,1.433L43.938,41.172z"/>
			<path d="M43.232,46.426l0.363,0.093c0.07-0.281,0.135-0.559,0.188-0.83l-0.366-0.072
			C43.366,45.88,43.305,46.15,43.232,46.426z"/>
			<path d="M42.05,37.132c0.261,0.412,0.495,0.848,0.695,1.291l0.34-0.154
			c-0.208-0.459-0.449-0.908-0.719-1.336L42.05,37.132z"/>
			<path d="M43.691,42.691c0,0.086,0.002,0.176,0.002,0.266c0,0.396-0.021,0.801-0.06,1.204l0.372,0.034
			c0.039-0.416,0.061-0.834,0.061-1.238c0-0.094,0-0.184-0.004-0.273L43.691,42.691z"/>
			<path d="M50.111,46.942c-0.426,0.176-0.781,0.42-1.092,0.718c-0.267,0.254-0.486,0.554-0.67,0.895
			c-0.033-0.059-0.068-0.114-0.104-0.171c-0.016-0.041-0.025-0.081-0.033-0.104l-0.023,0.008c-0.151-0.229-0.317-0.442-0.51-0.627
			c-0.312-0.297-0.672-0.542-1.097-0.717c-0.429-0.172-1.55-0.688-1.528-0.258c0.021,0.43,0.143,1.096,0.336,1.514
			c0.194,0.414,0.459,0.76,0.771,1.056c0.312,0.294,0.669,0.539,1.095,0.714c0.206,0.082,0.424,0.153,0.663,0.2
			c0,0.021-0.004,0.039-0.004,0.06c0.054,0.004,0.103,0,0.153,0c0.328,1.618,0.494,3.633-0.354,4.32l0.397,0.488
			c1.115-0.909,0.935-3.145,0.603-4.809c0.021-0.002,0.044,0,0.065,0c0-0.023-0.004-0.045-0.004-0.066
			c0.236-0.049,0.459-0.112,0.664-0.193c0.424-0.175,0.781-0.42,1.096-0.714c0.312-0.296,0.572-0.642,0.771-1.056
			c0.191-0.418,0.312-1.084,0.334-1.514C51.661,46.255,50.54,46.773,50.111,46.942z"/>
		</g>
	</g>
	<g>
	</g>
	<g>
	</g>
	<g>
	</g>
	<g>
	</g>
	<g>
	</g>
	<g>
	</g>
	<g>
	</g>
	<g>
	</g>
	<g>
	</g>
	<g>
	</g>
	<g>
	</g>
	<g>
	</g>
	<g>
	</g>
	<g>
	</g>
	<g>
	</g>
</svg>
