<?xml version="1.0" encoding="iso-8859-1"?>
<svg version="1.1" id="Capa_1" 
	xmlns="http://www.w3.org/2000/svg" 
	xmlns:xlink="http://www.w3.org/1999/xlink" x="0px" y="0px" viewBox="0 0 61.997 61.997" style="enable-background:new 0 0 61.997 61.997;" xml:space="preserve">
	<g>
		<circle cx="43.915" cy="26.319" r="4.431"/>
		<path d="M51.388,32.96c-1.99,0.684-3.981,1.368-5.973,2.051c-1.529-0.76-3.016-1.67-4.254-2.833
			l-0.004-0.028c-0.145-0.161-0.307-0.306-0.475-0.442c-0.011-0.01-0.021-0.019-0.029-0.029c-0.51-0.539-1.088-0.76-1.648-0.758
			c-0.49-0.094-1.025-0.1-1.602,0.013c-7.703,2.624-16.392,2.159-19.126,0.604c-2.866-2.321-5.163-5.284-7.097-8.445
			c-1.407-2.3-5.033-0.196-3.618,2.115c1.965,3.211,4.292,6.24,7.095,8.739H2.051C0.919,33.947,0,34.866,0,35.999
			s0.918,2.053,2.051,2.053h14.515c4.872,1.16,17.757,3.516,23.271,0.424c0,0,0.362-0.189,0.809-0.533
			c0.595,0.376,1.201,0.73,1.814,1.064c1.037,0.563,2.366,1.406,3.572,0.992c2.222-0.764,4.441-1.525,6.664-2.289
			C55.681,36.684,54.397,31.926,51.388,32.96z"/>
		<path d="M61.856,27.652l0.078-0.075l-4.244-5.046l-6.484,7.649l1.125,0.954l-0.494,0.583l3.965,3.361
			l6.195-7.308L61.856,27.652z M58.032,24.408l-5.436,6.412l-0.812-0.688l5.904-6.966l2.795,3.32L58.032,24.408z"/>
	</g>
</svg>
