<?xml version="1.0" encoding="iso-8859-1"?>
<!-- Generator: Adobe Illustrator 18.1.1, SVG Export Plug-In . SVG Version: 6.00 Build 0)  -->
<svg version="1.1" id="Capa_1" 
	xmlns="http://www.w3.org/2000/svg" 
	xmlns:xlink="http://www.w3.org/1999/xlink" x="0px" y="0px" viewBox="0 0 58.673 58.673" style="enable-background:new 0 0 58.673 58.673;" xml:space="preserve">
	<g>
		<path d="M19.302,5.358C19.302,2.399,21.701,0,24.66,0s5.358,2.399,5.358,5.358s-2.399,5.358-5.358,5.358
		S19.302,8.317,19.302,5.358z M45.559,37.288c-1.642,0.893-3.342,1.673-5.019,2.496c-1.231-2.655-2.576-5.298-3.448-8.057
		c-0.029-0.422-0.084-0.846-0.19-1.268c-0.97-3.871-1.834-7.763-2.644-11.67c2.98,1.165,5.914,2.438,8.792,3.858
		c3.222,1.59,6.057-3.233,2.821-4.829c-4.972-2.454-10.097-4.563-15.349-6.341c-0.126-0.043-0.244-0.059-0.365-0.085
		c-0.671-0.255-1.428-0.374-2.272-0.315c-1.531,0.106-3.159,1.04-4.164,2.367c-1.565,1.475-3.129,2.951-4.694,4.426
		c-2.703-0.901-5.406-1.802-8.108-2.703c-3.431-1.144-4.889,4.258-1.487,5.393c3.186,1.062,6.37,2.124,9.554,3.185
		c0.955,0.318,2.02-0.058,2.721-0.719c0.658-0.62,1.315-1.24,1.973-1.86c0.862,4.17,1.773,8.328,2.799,12.463
		c-0.949,7.047-3.837,13.625-5.777,20.45c-1.246,4.383,5.472,6.596,6.72,2.209c1.641-5.77,3.829-11.35,5.189-17.152
		c0.989,2.232,2.014,4.455,2.842,6.771c0.786,2.194,3.386,2.983,5.314,1.767c2.777-1.752,5.861-2.951,8.741-4.519
		C53.52,40.973,49.533,35.127,45.559,37.288z"/>
	</g>
	<g>
	</g>
	<g>
	</g>
	<g>
	</g>
	<g>
	</g>
	<g>
	</g>
	<g>
	</g>
	<g>
	</g>
	<g>
	</g>
	<g>
	</g>
	<g>
	</g>
	<g>
	</g>
	<g>
	</g>
	<g>
	</g>
	<g>
	</g>
	<g>
	</g>
</svg>
