<svg id="Layer_1" 
	xmlns="http://www.w3.org/2000/svg" 
	xmlns:xlink="http://www.w3.org/1999/xlink" x="0px" y="0px" viewBox="0 0 96 96" xml:space="preserve">
	<g>
		<path id='head' d="M48,31.7c4.5,0,8.1-3.6,8.1-8.1c0-4.5-3.6-8.1-8.1-8.1c-4.5,0-8.1,3.6-8.1,8.1
		C39.9,28.1,43.5,31.7,48,31.7z"/>
		<path id='body' d="M37.2,56.1h2.7V67c0,1.5,1.2,2.7,2.7,2.7h10.8c1.5,0,2.7-1.2,2.7-2.7V56.1h2.7
		c1.5,0,2.7-1.2,2.7-2.7V48c0-7.5-6.1-13.5-13.5-13.5c-7.5,0-13.5,6.1-13.5,13.5v5.4C34.5,54.9,35.7,56.1,37.2,56.1z"/>
		<path id='circle' d="M65.2,61.1l-1.6,5.2c5,1.5,6.1,3.2,6.1,3.4c0,1.4-7.4,5.4-21.7,5.4s-21.7-4-21.7-5.4
		c0-0.3,1.1-2,6.5-3.5l-1.5-5.2c-8.6,2.5-10.4,6.1-10.4,8.8c0,7.4,14,10.8,27.1,10.8c13,0,27.1-3.4,27.1-10.8
		C75.1,67.1,73.4,63.5,65.2,61.1z"/>
	</g>
</svg>
