<?xml version="1.0" encoding="iso-8859-1"?>
<!-- Generator: Adobe Illustrator 17.1.0, SVG Export Plug-In . SVG Version: 6.00 Build 0)  -->
<!DOCTYPE svg PUBLIC "-//W3C//DTD SVG 1.1//EN" "http://www.w3.org/Graphics/SVG/1.1/DTD/svg11.dtd">
<svg version="1.1" id="Capa_1" xmlns="http://www.w3.org/2000/svg" xmlns:xlink="http://www.w3.org/1999/xlink" x="0px" y="0px"
	 viewBox="0 0 103.4 103.4" style="enable-background:new 0 0 103.4 103.4;" xml:space="preserve">
<g>
	<path d="M47.452,27.875c1.207,0,2.398-0.215,3.539-0.639c2.546-0.945,4.572-2.826,5.704-5.296c1.132-2.469,1.234-5.231,0.289-7.778
		c-1.473-3.966-5.305-6.63-9.535-6.63c-1.207,0-2.397,0.215-3.539,0.639c-5.256,1.953-7.944,7.818-5.992,13.074
		C39.391,25.21,43.223,27.875,47.452,27.875z"/>
	<path d="M71.766,3.684v-2.26C71.766,0.499,70.984,0,70.247,0h-5.698c-0.961,0-1.658,0.599-1.658,1.424v2.26
		c0,2.102,1.473,3.858,3.438,4.314v5.5H64.35c-0.552,0-1,0.448-1,1s0.448,1,1,1h0.969c-0.647,0.557-1.067,1.372-1.066,2.285
		l0.011,10.831c0.001,0.601-0.521,1.2-1.116,1.282l-7.264,1.006l-7.716,0.758c-0.017,0.001-0.03-0.002-0.047-0.001l-4.333,0.415
		c-1.444,0.139-3.037,1.213-3.706,2.5l-8.012,15.415c-0.672,1.293-0.557,3.249,0.263,4.452l7.957,11.697
		c0.761,1.119,2.333,1.931,3.736,1.932c0,0,0,0,0,0c0.099,0,0.196-0.004,0.292-0.012l0.012-0.001V99.4c0,2.206,1.794,4,4,4h0.416
		c2.206,0,4-1.794,4-4V70.883l2.544-0.25V99.4c0,2.206,1.794,4,4,4h0.414c2.206,0,4-1.794,4-4V71.901
		c0-1.436-0.093-3.505-0.218-4.993c-0.003-0.034,0.003-0.068-0.001-0.102L60.36,37.658l8.234-1.031
		c1.596-0.2,2.866-1.616,2.892-3.225l0.249-15.683c0.012-0.797-0.287-1.546-0.843-2.111c-0.068-0.069-0.147-0.122-0.22-0.183
		c0.372-0.146,0.637-0.503,0.637-0.927c0-0.552-0.448-1-1-1h-1.979V7.997C70.294,7.541,71.766,5.785,71.766,3.684z M44.43,59.53
		l-4.377-5.943c-0.414-0.561-0.461-1.615-0.101-2.212l4.252-7.038L44.43,59.53z"/>
</g>
<g>
</g>
<g>
</g>
<g>
</g>
<g>
</g>
<g>
</g>
<g>
</g>
<g>
</g>
<g>
</g>
<g>
</g>
<g>
</g>
<g>
</g>
<g>
</g>
<g>
</g>
<g>
</g>
<g>
</g>
</svg>
