<?xml version="1.0" encoding="iso-8859-1"?>
<!-- Generator: Adobe Illustrator 17.1.0, SVG Export Plug-In . SVG Version: 6.00 Build 0)  -->
<!DOCTYPE svg PUBLIC "-//W3C//DTD SVG 1.1//EN" "http://www.w3.org/Graphics/SVG/1.1/DTD/svg11.dtd">
<svg version="1.1" id="Capa_1" xmlns="http://www.w3.org/2000/svg" xmlns:xlink="http://www.w3.org/1999/xlink" x="0px" y="0px"
	 viewBox="0 0 87.827 87.827" style="enable-background:new 0 0 87.827 87.827;" xml:space="preserve">
<g>
	<path d="M20.338,14.174c0-5.607-4.562-10.169-10.169-10.169S0,8.567,0,14.174s4.562,10.169,10.169,10.169
		S20.338,19.781,20.338,14.174z"/>
	<path d="M85.827,74.753c-1.623,0-2.337-0.606-3.419-1.525c-1.299-1.103-2.916-2.475-6.007-2.475s-4.708,1.372-6.007,2.476
		c-0.44,0.373-0.821,0.691-1.226,0.942L56.158,12.744c0.781-0.427,1.211-1.337,0.982-2.24c-0.271-1.071-1.358-1.719-2.43-1.447
		c-15.313,3.879-21.286,21.9-23.292,30.475l-10.405,2.764c-0.531,0.142-1.13-0.202-1.284-0.722l-3.362-11.387
		c-0.015-0.05-0.041-0.086-0.057-0.133c-0.239-1.417-1.466-2.502-2.95-2.502H6.977c-1.654,0-3,1.346-3,3V61.18
		c0,1.307,0.845,2.41,2.014,2.82c0.426,0.275,0.957,0.441,1.58,0.445l13.231,0.09c0.886,0.006,1.607,0.731,1.607,1.617v14.069
		c0,1.985,1.615,3.601,3.6,3.601h2.409c0.961,0,1.862-0.377,2.539-1.061c0.676-0.684,1.043-1.59,1.033-2.551l-0.236-21.895
		c-0.021-1.979-1.649-3.589-3.628-3.589H16.361V51.48c0.328,0.129,0.682,0.206,1.055,0.206c0.318,0,0.635-0.053,0.941-0.156
		l14.002-4.738c0.522-0.177,1.003-0.499,1.406-0.907c0.236-0.189,0.426-0.43,0.558-0.71c0.382-0.599,0.621-1.284,0.626-1.963
		l0.009-1.078c1.381-6.569,6.263-24.315,19.287-28.764L67.243,74.74c-0.09,0.004-0.173,0.013-0.269,0.013
		c-1.62,0-2.334-0.606-3.416-1.524c-1.298-1.103-2.915-2.476-6.004-2.476c-3.09,0-4.707,1.372-6.006,2.476
		c-1.082,0.918-1.796,1.524-3.417,1.524c-1.62,0-2.334-0.606-3.416-1.524c-1.298-1.103-2.915-2.476-6.004-2.476
		c-1.104,0-2,0.896-2,2s0.896,2,2,2c1.62,0,2.334,0.606,3.416,1.524c1.298,1.103,2.915,2.476,6.004,2.476
		c3.09,0,4.707-1.372,6.006-2.476c1.082-0.918,1.796-1.524,3.417-1.524c1.62,0,2.334,0.606,3.416,1.524
		c1.298,1.103,2.915,2.476,6.004,2.476c3.091,0,4.708-1.372,6.007-2.475c1.082-0.919,1.797-1.525,3.419-1.525
		c1.622,0,2.337,0.606,3.419,1.524c1.299,1.104,2.917,2.476,6.007,2.476c1.104,0,2-0.896,2-2S86.931,74.753,85.827,74.753z"/>
	<path d="M17.338,66.268H6.977c-1.654,0-3,1.346-3,3V80.24c0,1.654,1.346,3,3,3h10.361c1.654,0,3-1.346,3-3V69.268
		C20.338,67.614,18.992,66.268,17.338,66.268z"/>
</g>
<g>
</g>
<g>
</g>
<g>
</g>
<g>
</g>
<g>
</g>
<g>
</g>
<g>
</g>
<g>
</g>
<g>
</g>
<g>
</g>
<g>
</g>
<g>
</g>
<g>
</g>
<g>
</g>
<g>
</g>
</svg>
