<?xml version="1.0" encoding="iso-8859-1"?>
<!-- Generator: Adobe Illustrator 17.1.0, SVG Export Plug-In . SVG Version: 6.00 Build 0)  -->
<!DOCTYPE svg PUBLIC "-//W3C//DTD SVG 1.1//EN" "http://www.w3.org/Graphics/SVG/1.1/DTD/svg11.dtd">
<svg version="1.1" id="Capa_1" xmlns="http://www.w3.org/2000/svg" xmlns:xlink="http://www.w3.org/1999/xlink" x="0px" y="0px"
	 viewBox="0 0 97.799 97.799" style="enable-background:new 0 0 97.799 97.799;" xml:space="preserve">
<g>
	<path d="M44.829,21.379c1,0.292,2.032,0.441,3.066,0.441c4.81,0,9.113-3.226,10.465-7.845c1.689-5.773-1.631-11.844-7.402-13.534
		C49.957,0.148,48.924,0,47.89,0c-4.809,0-9.113,3.226-10.467,7.845C35.734,13.618,39.056,19.689,44.829,21.379z"/>
	<path d="M56.184,90.643c-0.656,0-1.209,0.064-1.69,0.167V59.85c0.622-0.283,1.157-0.713,1.539-1.291
		c0.578-0.875,0.748-1.935,0.477-2.985l-2.016-7.84v-3.958c0-0.795-0.62-1.438-1.401-1.49l-3.544-13.782
		c-0.078-0.305-0.202-0.586-0.346-0.854c-0.045-0.112-0.083-0.226-0.142-0.333c-0.385-0.705-1.02-1.216-1.787-1.44l-6.931-2.029
		c-0.273-0.08-0.556-0.121-0.839-0.121c-1.326,0-2.511,0.887-2.883,2.157l-8.904,30.412c-0.439,1.498,0.299,3.177,1.68,3.891v32.612
		c0,2.757,2.243,5,5,5h1.027c2.757,0,5-2.243,5-5V60.095c0-0.038-0.01-0.073-0.011-0.11l4.411-15.067l3.083,12.167
		c0.425,1.678,1.883,2.939,3.587,3.191v34.354c0,0.408,0.164,0.777,0.429,1.048c0.026,0.035,0.038,0.073,0.069,0.107
		c0.543,0.607,1.456,0.773,4.246,0.773c3.81,0,5.742-0.9,5.742-2.676C61.979,92.006,59.542,90.643,56.184,90.643z"/>
	<circle cx="67.408" cy="92.29" r="2.8"/>
</g>
<g>
</g>
<g>
</g>
<g>
</g>
<g>
</g>
<g>
</g>
<g>
</g>
<g>
</g>
<g>
</g>
<g>
</g>
<g>
</g>
<g>
</g>
<g>
</g>
<g>
</g>
<g>
</g>
<g>
</g>
</svg>
