<?xml version="1.0" encoding="iso-8859-1"?>
<!-- Generator: Adobe Illustrator 17.1.0, SVG Export Plug-In . SVG Version: 6.00 Build 0)  -->
<!DOCTYPE svg PUBLIC "-//W3C//DTD SVG 1.1//EN" "http://www.w3.org/Graphics/SVG/1.1/DTD/svg11.dtd">
<svg version="1.1" id="Capa_1" 
	xmlns="http://www.w3.org/2000/svg" 
	xmlns:xlink="http://www.w3.org/1999/xlink" x="0px" y="0px" viewBox="0 0 95.632 95.632" style="enable-background:new 0 0 95.632 95.632;" xml:space="preserve">
	<g>
		<path d="M71.665,6.411c-0.533-0.589-1.277-0.914-2.096-0.914h-1.057c-1.617,0-3.039,1.257-3.237,2.862l-1.557,12.613
		c-0.08,0.646-0.738,1.325-1.381,1.424l-7.463,1.151l-5.832,0.573c-0.016,0.001-0.029-0.002-0.044-0.001l-4.405,0.422
		c-1.444,0.139-3.037,1.213-3.706,2.5l-8.012,15.415c-0.672,1.292-0.557,3.249,0.263,4.453l7.957,11.696
		c0.761,1.119,2.333,1.931,3.736,1.932h0c0.099,0,0.196-0.004,0.292-0.012l0.237-0.02l0.002,0.102l-3.134,7.881
		c-0.426,1.071-1.743,2.377-2.817,2.795l-14.274,5.544c-0.945,0.367-1.606,1.071-1.815,1.933c-0.209,0.862,0.057,1.792,0.729,2.55
		l1.261,1.425c0.85,0.96,2.259,1.557,3.677,1.557c0.566,0,1.099-0.095,1.581-0.282l14.274-5.544
		c1.576-0.612,3.341-2.306,4.019-3.855l4.749-10.859l4.11,7.328c0.598,1.066,1.033,3.069,0.932,4.286l-1.4,16.829
		c-0.078,0.933,0.208,1.802,0.803,2.449c0.587,0.638,1.411,0.989,2.321,0.989c0.112,0,0.226-0.005,0.341-0.016l1.893-0.181
		c1.918-0.184,3.545-1.832,3.705-3.751l1.399-16.829c0.131-1.569-0.167-3.966-0.678-5.458l-3.783-11.032l-2.262-28.315l6.612-0.928
		c1.547-0.217,2.88-1.605,3.035-3.159l1.729-17.377C72.448,7.772,72.199,7,71.665,6.411z M45.232,51.998l-4.377-5.943
		c-0.413-0.561-0.46-1.613-0.099-2.208l4.249-6.994L45.232,51.998z"/>
		<path d="M48.255,20.343c1.208,0,2.398-0.215,3.539-0.639c2.546-0.945,4.572-2.826,5.704-5.296c1.132-2.469,1.234-5.231,0.288-7.778
		C56.312,2.665,52.481,0,48.251,0c-1.208,0-2.398,0.215-3.539,0.639c-5.256,1.953-7.944,7.818-5.992,13.074
		C40.193,17.678,44.025,20.343,48.255,20.343z"/>
	</g>
</svg>
