<?xml version="1.0" encoding="iso-8859-1"?>
<!-- Generator: Adobe Illustrator 17.1.0, SVG Export Plug-In . SVG Version: 6.00 Build 0)  -->
<!DOCTYPE svg PUBLIC "-//W3C//DTD SVG 1.1//EN" "http://www.w3.org/Graphics/SVG/1.1/DTD/svg11.dtd">
<svg version="1.1" id="Capa_1" xmlns="http://www.w3.org/2000/svg" xmlns:xlink="http://www.w3.org/1999/xlink" x="0px" y="0px"
	 viewBox="0 0 94.424 94.424" style="enable-background:new 0 0 94.424 94.424;" xml:space="preserve">
<g>
	<path d="M42.091,19.195c0.993,0,1.98-0.155,2.933-0.461c2.441-0.783,4.431-2.47,5.603-4.75c1.171-2.279,1.385-4.879,0.602-7.319
		C49.95,2.678,46.279,0,42.094,0c-0.993,0-1.98,0.155-2.935,0.461c-2.44,0.784-4.429,2.47-5.601,4.75
		c-1.172,2.28-1.386,4.879-0.602,7.319C34.236,16.517,37.907,19.195,42.091,19.195z"/>
	<path d="M69.59,46.376c0-1.654-1.346-3-3-3h-0.537c-0.465-1.112-1.558-1.949-2.802-2.012l-6.396-0.325
		c-0.619-0.031-1.23-0.598-1.308-1.212l-1.844-14.519c-0.043-0.336-0.129-0.617-0.243-0.854c-0.139-0.404-0.356-0.777-0.663-1.089
		c-0.549-0.559-1.285-0.867-2.153-0.867c-0.001,0-0.003,0-0.004,0l-8.389,0.217c-0.028-0.001-0.051-0.008-0.08-0.008
		c-0.001,0-0.002,0-0.003,0l-3.946,0.082c-1.444,0.031-3.12,0.972-3.898,2.188L26.52,37.179c-0.794,1.241-0.811,3.197-0.038,4.451
		l6.826,11.076c0.641,1.041,1.959,1.857,3.233,2.054l-3.398,11.856c-0.372,1.298-1.235,3.391-1.885,4.569l-5.975,10.85
		c-0.948,1.723-0.347,3.943,1.341,4.952l1.253,0.748c0.548,0.328,1.173,0.501,1.805,0.501c1.275,0,2.452-0.698,3.07-1.821
		l5.973-10.849c0.71-1.29,1.706-3.467,2.219-4.851l4.837-13.065c0.024-0.064,0.031-0.13,0.051-0.195l0.418-0.039l3.938,6.507
		c0.659,1.088,1.264,3.08,1.323,4.35l0.479,10.376c0.089,1.936,1.737,3.578,3.675,3.661l1.296,0.051c0.94,0,1.81-0.365,2.448-1.029
		c0.64-0.665,0.971-1.554,0.933-2.5l-0.509-12.679c-0.063-1.576-0.663-3.918-1.365-5.332l-5.146-10.353
		c-0.046-0.092-0.1-0.177-0.152-0.263l0.048-2.6l10.19-0.173c0.811-0.014,1.56-0.344,2.107-0.93
		c0.306-0.326,0.516-0.712,0.643-1.126h0.432c0.551,0,1,0.448,1,1v37.252H38.419c-1.103,0-2,0.897-2,2v1.75c0,1.103,0.897,2,2,2
		h0.013c-0.012,0.136-0.041,0.267-0.041,0.406c0,2.559,2.081,4.64,4.639,4.64s4.64-2.081,4.64-4.64c0-0.139-0.029-0.27-0.041-0.406
		h10.859c-0.012,0.136-0.041,0.267-0.041,0.406c0,2.559,2.082,4.64,4.641,4.64c2.558,0,4.64-2.081,4.64-4.64
		c0-0.142-0.029-0.277-0.042-0.416c1.058-0.051,1.904-0.921,1.904-1.99v-1.75c0-0.027-0.007-0.053-0.008-0.08
		c0.001-0.027,0.008-0.052,0.008-0.08V46.376z M37.518,46.558l-3.662-5.472c-0.375-0.561-0.348-1.563,0.058-2.102l3.981-5.292
		L37.518,46.558z"/>
</g>
<g>
</g>
<g>
</g>
<g>
</g>
<g>
</g>
<g>
</g>
<g>
</g>
<g>
</g>
<g>
</g>
<g>
</g>
<g>
</g>
<g>
</g>
<g>
</g>
<g>
</g>
<g>
</g>
<g>
</g>
</svg>
