<?xml version="1.0" encoding="iso-8859-1"?>
<!-- Generator: Adobe Illustrator 17.1.0, SVG Export Plug-In . SVG Version: 6.00 Build 0)  -->
<!DOCTYPE svg PUBLIC "-//W3C//DTD SVG 1.1//EN" "http://www.w3.org/Graphics/SVG/1.1/DTD/svg11.dtd">
<svg version="1.1" id="Capa_1" xmlns="http://www.w3.org/2000/svg" xmlns:xlink="http://www.w3.org/1999/xlink" x="0px" y="0px"
	 viewBox="0 0 96.579 96.579" style="enable-background:new 0 0 96.579 96.579;" xml:space="preserve">
<g>
	<path d="M75.247,10.592l-0.89-1.287c-0.555-0.802-1.468-1.281-2.443-1.281c-0.622,0-1.218,0.192-1.726,0.555L51.991,21.596
		c-0.11-0.012-0.218-0.034-0.332-0.034H37.11c-0.04,0-0.077,0.01-0.117,0.012l-0.098-0.001c-1.482,0-3.114,0.99-3.796,2.302
		l-8.013,15.415c-0.676,1.301-0.536,3.252,0.319,4.443l5.796,8.075c0.458,0.639,1.193,1.169,2.001,1.503l-7.246,21.735
		c-0.433,1.298-0.326,2.656,0.301,3.825c0.603,1.123,1.615,1.926,2.852,2.261c0.407,0.11,0.83,0.166,1.255,0.166h0
		c2.207,0,4.242-1.481,4.949-3.601l7.767-23.298h4.456l5.632,1.93c0.944,0.323,1.759,1.482,1.744,2.48l-0.18,11.683
		c-0.015,0.961,0.348,1.868,1.022,2.553c0.674,0.685,1.575,1.063,2.537,1.063h1.576c1.985,0,3.6-1.615,3.6-3.6V52.515
		c0-1.892-1.435-3.745-3.267-4.219l-5.541-1.433V28.98c0.028-0.019,0.059-0.033,0.087-0.053l19.772-14.145
		C75.857,13.825,76.183,11.945,75.247,10.592z M34.11,44.073l-1.004-1.26c-0.425-0.533-0.49-1.55-0.137-2.133l1.141-1.882V44.073z"
		/>
	<path d="M44.384,19.518c5.381,0,9.759-4.378,9.759-9.759S49.765,0,44.384,0s-9.759,4.378-9.759,9.759S39.003,19.518,44.384,19.518z
		"/>
	<path d="M68.829,73.617L23.695,86.574c-2.124,0.609-3.351,2.825-2.741,4.948c0.504,1.755,2.104,2.897,3.843,2.897
		c0.365,0,0.737-0.05,1.105-0.156l4.317-1.239c0.207,1.991,1.875,3.555,3.919,3.555c2.183,0,3.959-1.777,3.959-3.961
		c0-0.625-0.159-1.209-0.418-1.736l21.35-6.129c0.376,1.795,1.969,3.148,3.873,3.148c2.185,0,3.961-1.776,3.961-3.96
		c0-0.481-0.099-0.936-0.257-1.363l4.429-1.271c2.124-0.609,3.351-2.825,2.741-4.948C73.168,74.235,70.954,73.007,68.829,73.617z"/>
</g>
<g>
</g>
<g>
</g>
<g>
</g>
<g>
</g>
<g>
</g>
<g>
</g>
<g>
</g>
<g>
</g>
<g>
</g>
<g>
</g>
<g>
</g>
<g>
</g>
<g>
</g>
<g>
</g>
<g>
</g>
</svg>
