<?xml version="1.0" encoding="iso-8859-1"?>
<!-- Generator: Adobe Illustrator 17.1.0, SVG Export Plug-In . SVG Version: 6.00 Build 0)  -->
<!DOCTYPE svg PUBLIC "-//W3C//DTD SVG 1.1//EN" "http://www.w3.org/Graphics/SVG/1.1/DTD/svg11.dtd">
<svg version="1.1" id="Capa_1" xmlns="http://www.w3.org/2000/svg" xmlns:xlink="http://www.w3.org/1999/xlink" x="0px" y="0px"
	 viewBox="0 0 92.008 92.008" style="enable-background:new 0 0 92.008 92.008;" xml:space="preserve">
<g>
	<path d="M46.004,21.672c5.975,0,10.836-4.861,10.836-10.836S51.979,0,46.004,0c-5.975,0-10.835,4.861-10.835,10.836
		S40.029,21.672,46.004,21.672z"/>
	<path d="M68.311,38.201l-8.574-11.945c-0.835-1.164-2.546-2.042-3.979-2.042H54.42h-0.911h-15.01h-0.911h-1.339
		c-1.433,0-3.144,0.878-3.979,2.042l-8.574,11.945c-0.862,1.202-0.969,3.153-0.243,4.441l6.942,12.324
		c0.711,1.263,2.404,2.252,3.853,2.252h0.201c-0.002,0.296,0.017,0.589,0.071,0.875l2.712,14.235
		c0.353,1.851,1.763,4.244,3.211,5.447l6.624,5.508v3.724c0,2.757,2.243,5,5,5h0.352c2.757,0,5-2.243,5-5v-2.595
		c0.928-0.561,1.51-1.415,1.59-2.362c0.082-0.969-0.364-1.935-1.224-2.649l-0.367-0.305V57.842v-0.503v-0.12h0.34
		c1.449,0,3.141-0.989,3.853-2.252l6.942-12.324C69.281,41.354,69.174,39.403,68.311,38.201z M47.068,60.842v8.677
		c-0.309-0.609-0.542-1.223-0.642-1.748l-1.32-6.929H47.068z M57.42,35.445l3.307,4.746c0.402,0.578,0.434,1.65,0.065,2.251
		l-3.373,5.494V35.445z M34.589,47.938l-3.373-5.495c-0.369-0.601-0.337-1.673,0.065-2.251l3.308-4.747V47.938z"/>
</g>
<g>
</g>
<g>
</g>
<g>
</g>
<g>
</g>
<g>
</g>
<g>
</g>
<g>
</g>
<g>
</g>
<g>
</g>
<g>
</g>
<g>
</g>
<g>
</g>
<g>
</g>
<g>
</g>
<g>
</g>
</svg>
