<?xml version="1.0" encoding="iso-8859-1"?>
<!-- Generator: Adobe Illustrator 17.1.0, SVG Export Plug-In . SVG Version: 6.00 Build 0)  -->
<!DOCTYPE svg PUBLIC "-//W3C//DTD SVG 1.1//EN" "http://www.w3.org/Graphics/SVG/1.1/DTD/svg11.dtd">
<svg version="1.1" id="Capa_1" xmlns="http://www.w3.org/2000/svg" xmlns:xlink="http://www.w3.org/1999/xlink" x="0px" y="0px"
	 viewBox="0 0 92.008 92.008" style="enable-background:new 0 0 92.008 92.008;" xml:space="preserve">
<g>
	<path d="M44.313,21.672c5.975,0,10.836-4.861,10.836-10.836S50.288,0,44.313,0S33.477,4.861,33.477,10.836
		S38.338,21.672,44.313,21.672z"/>
	<path d="M68.276,1.857l-1.459-0.389c-0.247-0.066-0.498-0.099-0.747-0.099c-1.383,0-2.504,1.018-2.667,2.421l-1.799,15.454
		c-0.082,0.699-0.769,1.523-1.442,1.729l-10.634,3.242H36.809h-0.91h-1.34c-1.433,0-3.143,0.877-3.979,2.042l-8.574,11.946
		c-0.862,1.202-0.969,3.153-0.243,4.441l6.942,12.324c0.682,1.211,2.266,2.161,3.673,2.237l3.122,15.148
		c0.379,1.84,1.808,4.223,3.252,5.424l6.624,5.508v3.724c0,2.757,2.243,5,5,5h0.353c2.757,0,5-2.243,5-5v-2.595
		c0.928-0.561,1.51-1.415,1.59-2.362c0.082-0.969-0.364-1.935-1.224-2.649l-0.367-0.305V57.842v-0.503V31.04l9.979-3.657
		c1.375-0.504,2.591-2.038,2.767-3.493l2.228-18.446C70.897,3.848,69.831,2.272,68.276,1.857z M45.377,60.842v8.676
		c-0.308-0.609-0.541-1.223-0.641-1.747l-1.32-6.929H45.377z M32.899,47.938l-3.374-5.497c-0.368-0.6-0.337-1.673,0.065-2.25
		l3.308-4.747V47.938z"/>
</g>
<g>
</g>
<g>
</g>
<g>
</g>
<g>
</g>
<g>
</g>
<g>
</g>
<g>
</g>
<g>
</g>
<g>
</g>
<g>
</g>
<g>
</g>
<g>
</g>
<g>
</g>
<g>
</g>
<g>
</g>
</svg>
