<?xml version="1.0" encoding="iso-8859-1"?>
<!-- Generator: Adobe Illustrator 17.1.0, SVG Export Plug-In . SVG Version: 6.00 Build 0)  -->
<!DOCTYPE svg PUBLIC "-//W3C//DTD SVG 1.1//EN" "http://www.w3.org/Graphics/SVG/1.1/DTD/svg11.dtd">
<svg version="1.1" id="Capa_1" xmlns="http://www.w3.org/2000/svg" xmlns:xlink="http://www.w3.org/1999/xlink" x="0px" y="0px"
	 viewBox="0 0 93.089 93.089" style="enable-background:new 0 0 93.089 93.089;" xml:space="preserve">
<g>
	<path d="M41.979,21.672c5.975,0,10.836-4.861,10.836-10.836S47.954,0,41.979,0c-5.975,0-10.835,4.861-10.835,10.836
		S36.004,21.672,41.979,21.672z"/>
	<path d="M63.325,52.677L51.002,26.385c-0.594-1.268-2.099-2.166-3.526-2.141c-0.101-0.01-0.199-0.031-0.303-0.031H36.786
		c-1.654,0-3,1.346-3,3v24.625c0,0.137,0.023,0.269,0.041,0.401l-0.295,15.854c-0.025,1.355-0.292,3.619-0.583,4.943l-3.384,15.41
		c-0.211,0.958-0.021,1.907,0.532,2.671c0.554,0.765,1.397,1.24,2.374,1.338l1.585,0.159c0.123,0.012,0.245,0.018,0.367,0.018
		c1.813,0,3.47-1.323,3.855-3.078l3.386-15.41c0.318-1.447,0.636-3.825,0.709-5.301l0.257-5.162l0.928,5.474
		c0.234,1.38,0.489,3.645,0.567,5.048l0.883,15.751c0.1,1.786,1.507,3.133,3.272,3.133c0.197,0,0.399-0.017,0.604-0.052l1.57-0.272
		c1.896-0.329,3.351-2.16,3.244-4.082l-0.881-15.753c-0.082-1.456-0.309-3.812-0.507-5.251l-2.155-15.674
		c0.003-0.056,0.017-0.108,0.017-0.165v-8.964l6.429,12.966c0.509,1.027,1.587,1.691,2.745,1.691c0.445,0,0.874-0.095,1.275-0.282
		l1.256-0.586c0.725-0.338,1.274-0.939,1.548-1.694S63.664,53.401,63.325,52.677z"/>
</g>
<g>
</g>
<g>
</g>
<g>
</g>
<g>
</g>
<g>
</g>
<g>
</g>
<g>
</g>
<g>
</g>
<g>
</g>
<g>
</g>
<g>
</g>
<g>
</g>
<g>
</g>
<g>
</g>
<g>
</g>
</svg>
