<svg id="Capa_1" enable-background="new 0 0 450.823 450.823" height="512" viewBox="0 0 450.823 450.823" width="512" xmlns="http://www.w3.org/2000/svg"><path id="path-1_3_" d="m329.866 318.195c11.004 11.004 11.004 28.844 0 39.847-11.004 11.004-28.844 11.004-39.847 0-11.004-11.004-11.004-28.844 0-39.847 11.003-11.004 28.843-11.004 39.847 0" transform="translate(9.902 10.902)"/><path id="path-1_2_" d="m160.807 318.195c11.004 11.004 11.004 28.844 0 39.847-11.004 11.004-28.844 11.004-39.847 0-11.004-11.004-11.004-28.844 0-39.847 11.003-11.004 28.843-11.004 39.847 0" transform="translate(3.902 10.902)"/><path d="m362.497 9.424c-30.172-4.292-78.463-9.424-137.085-9.424-58.624 0-106.914 5.132-137.099 9.424-34.285 4.912-60.136 34.877-60.136 69.712v301.246c0 23.306 18.959 42.265 42.265 42.265h14.088v14.088c0 7.787 6.301 14.088 14.088 14.088h28.176c7.787 0 14.088-6.301 14.088-14.088v-14.088h169.059v14.088c0 7.787 6.301 14.088 14.088 14.088h28.176c7.787 0 14.088-6.301 14.088-14.088v-14.088h14.088c23.306 0 42.265-18.959 42.265-42.265v-301.246c.001-34.835-25.851-64.8-60.149-69.712zm-270.208 27.902c29.291-4.182 76.151-9.149 133.123-9.149s103.832 4.967 133.109 9.149c20.499 2.93 35.95 20.912 35.95 41.811v133.902c-29.026 3.642-105.233 12.374-169.059 12.374-63.786 0-140.022-8.733-169.059-12.374v-133.903c0-20.898 15.45-38.88 35.936-41.81zm288.093 357.145h-309.941c-7.773 0-14.088-6.315-14.088-14.088v-138.94c31.817 3.954 105.359 12.145 169.059 12.145s137.242-8.191 169.059-12.145v138.939c-.001 7.774-6.316 14.089-14.089 14.089z"/></svg>