<?xml version="1.0" encoding="iso-8859-1"?>
<!-- Generator: Adobe Illustrator 19.0.0, SVG Export Plug-In . SVG Version: 6.00 Build 0)  -->
<svg version="1.1" id="Capa_1" xmlns="http://www.w3.org/2000/svg" xmlns:xlink="http://www.w3.org/1999/xlink" x="0px" y="0px"
	 viewBox="0 0 512 512" style="enable-background:new 0 0 512 512;" xml:space="preserve">
<g>
	<g>
		<g>
			<path d="M341.333,149.333C341.333,102.281,303.052,64,256,64s-85.333,38.281-85.333,85.333c0,47.052,38.281,85.333,85.333,85.333
				S341.333,196.385,341.333,149.333z M192,149.333c0-35.292,28.708-64,64-64s64,28.708,64,64c0,35.292-28.708,64-64,64
				S192,184.625,192,149.333z"/>
			<path d="M308.184,364.496l79.264-144.267c11.698-21.667,17.885-46.177,17.885-70.896C405.333,66.99,338.344,0,256,0
				S106.667,66.99,106.667,149.333c0,24.719,6.188,49.229,17.927,70.958l79.225,144.204
				c-93.404,6.342-182.486,30.556-182.486,72.837C21.333,486.354,139.385,512,256,512s234.667-25.646,234.667-74.667
				C490.667,395.052,401.59,370.839,308.184,364.496z M143.323,210.083C133.302,191.531,128,170.521,128,149.333
				c0-70.583,57.417-128,128-128s128,57.417,128,128c0,21.188-5.302,42.198-15.281,60.688L256,415.177L143.323,210.083z
				 M256,490.667c-130.229,0-213.333-31.583-213.333-53.333c0-18.296,59.993-46.133,172.536-52.116l31.453,57.251
				c1.865,3.417,5.448,5.531,9.344,5.531s7.479-2.115,9.344-5.531l31.454-57.251c112.54,5.983,172.535,33.82,172.535,52.116
				C469.333,459.083,386.229,490.667,256,490.667z"/>
		</g>
	</g>
</g>
<g>
</g>
<g>
</g>
<g>
</g>
<g>
</g>
<g>
</g>
<g>
</g>
<g>
</g>
<g>
</g>
<g>
</g>
<g>
</g>
<g>
</g>
<g>
</g>
<g>
</g>
<g>
</g>
<g>
</g>
</svg>
