<svg id="Capa_1" enable-background="new 0 0 443.294 443.294" height="512" viewBox="0 0 443.294 443.294" width="512" xmlns="http://www.w3.org/2000/svg"><path d="m313.044 176.774c29.951-25.825 47.132-62.839 47.132-101.543v-47.525h27.706v-27.706h-332.47v27.706h27.706v47.525c0 38.704 17.181 75.718 47.132 101.543l26.258 22.619c6.48 5.587 10.187 13.704 10.187 22.254s-3.707 16.667-10.187 22.24l-26.258 22.633c-29.951 25.825-47.132 62.839-47.132 101.543v47.525h-27.706v27.706h332.471v-27.706h-27.706v-47.525c0-38.704-17.181-75.718-47.132-101.543l-25.108-21.645c-6.764-5.831-10.647-14.299-10.647-23.228s3.883-17.397 10.647-23.228c-.001 0 25.107-21.645 25.107-21.645zm-146.814 238.814 55.417-73.878 55.417 73.878zm103.605-149.717 25.108 21.645c23.85 20.549 37.527 49.906 37.527 80.547v47.525h-20.786l-78.958-105.277c-5.222-6.981-16.937-6.981-22.159 0l-78.957 105.277h-20.786v-47.525c0-30.642 13.677-59.998 37.527-80.547l26.258-22.646c12.581-10.85 19.792-26.61 19.792-43.223s-7.211-32.373-19.792-43.236l-26.258-22.633c-23.85-20.549-37.527-49.906-37.527-80.547v-47.525h221.647v47.524c0 30.642-13.677 59.998-37.527 80.547l-25.108 21.645c-12.865 11.107-20.252 27.219-20.252 44.224-.001 17.006 7.386 33.118 20.251 44.225z"/></svg>