<svg id="Capa_1" enable-background="new 0 0 524.235 524.235" height="512" viewBox="0 0 524.235 524.235" width="512" xmlns="http://www.w3.org/2000/svg"><path d="m425.941 32.765h-65.529c0-18.094-14.671-32.765-32.765-32.765h-131.059c-18.094 0-32.765 14.671-32.765 32.765h-65.529c-18.094 0-32.765 14.671-32.765 32.765v327.647c0 15.614 11.023 29.069 26.333 32.125l35.905 7.181-21.486 73.387 62.906 18.366 23.086-78.852 63.413 12.683c2.128.432 4.272.64 6.431.64s4.304-.208 6.431-.64l63.49-12.699 23.766 78.868 62.922-18.302-22.128-73.477 35.774-7.155c15.31-3.056 26.333-16.51 26.333-32.125v-327.648c.001-18.094-14.67-32.764-32.764-32.764zm-229.353 327.647c-18.096 0-32.765-14.671-32.765-32.765 0-18.096 14.669-32.765 32.765-32.765s32.765 14.669 32.765 32.765c0 18.094-14.668 32.765-32.765 32.765zm131.059 0c-18.096 0-32.765-14.671-32.765-32.765 0-18.096 14.669-32.765 32.765-32.765s32.765 14.669 32.765 32.765c0 18.094-14.669 32.765-32.765 32.765zm65.53-131.059h-262.118v-131.059h65.529c18.094 0 32.765-14.671 32.765-32.765h65.529c0 18.094 14.671 32.765 32.765 32.765h65.529v131.059z"/></svg>